<svg xmlns="http://www.w3.org/2000/svg" version="1.1" xmlns:xlink="http://www.w3.org/1999/xlink" xmlns:svgjs="http://svgjs.dev/svgjs" width="1440" height="560" preserveAspectRatio="none" viewBox="0 0 1440 560">
    <g mask="url(&quot;#SvgjsMask1007&quot;)" fill="none">
        <rect width="1440" height="560" x="0" y="0" fill="rgba(231, 231, 231, 1)"></rect>
        <path d="M 0,149 C 57.6,120.8 172.8,-18 288,8 C 403.2,34 460.8,254 576,279 C 691.2,304 748.8,154.8 864,133 C 979.2,111.2 1036.8,191 1152,170 C 1267.2,149 1382.4,56.4 1440,28L1440 560L0 560z" fill="rgba(212, 212, 212, 1)"></path>
        <path d="M 0,457 C 96,432.6 288,315.8 480,335 C 672,354.2 768,545.4 960,553 C 1152,560.6 1344,409 1440,373L1440 560L0 560z" fill="rgba(189, 189, 189, 1)"></path>
    </g>
    <defs>
        <mask id="SvgjsMask1007">
            <rect width="1440" height="560" fill="#ffffff"></rect>
        </mask>
    </defs>
</svg>